{"title":"18+ Anarchy Parlor 2015 UNCENSORED Movies BRRip XviD New ~ ☻rDX☻","uid":15485726,"size":739264399,"categoryP":"video","categoryS":"movies","magnet":"?xt=urn:btih:759dfc09e2fa276e8a08f4823a7a9b553e0352d7&amp;dn=18%2B+Anarchy+Parlor+2015+UNCENSORED+Movies+BRRip+XviD+New+%7E+%E2%98%BBrDX%E2%98%BB&amp;tr=udp%3A%2F%2Ftracker.leechers-paradise.org%3A6969&amp;tr=udp%3A%2F%2Fzer0day.ch%3A1337&amp;tr=udp%3A%2F%2Fopen.demonii.com%3A1337&amp;tr=udp%3A%2F%2Ftracker.coppersurfer.tk%3A6969&amp;tr=udp%3A%2F%2Fexodus.desync.com%3A6969","seeders":0,"leechers":1,"uploader":"basicssom","files":2,"time":1470319439,"description":"----------------------------------------------------------------\r\n18+ Anarchy Parlor 2015 UNCENSORED English Movies BRRip XviD AAC New Source with Sample ☻rDX☻\r\n\r\nSCREEN SHOTS &amp; POSTER:\r\n  \nhttp://postimage.co.nr/2016/8/discount/index.htm  \nhttp://postimage.co.nr/2016/8/discount/1.html  \nhttp://postimage.co.nr/2016/8/discount/2.html  \nhttp://postimage.co.nr/2016/8/discount/3.html  \nhttp://postimage.co.nr/2016/8/discount/4.html  \nhttp://postimage.co.nr/2016/8/discount/5.html  \nhttp://postimage.co.nr/2016/8/discount/6.html  \nhttp://postimage.co.nr/2016/8/discount/7.html  \nhttp://postimage.co.nr/2016/8/discount/8.html  \nhttp://postimage.co.nr/2016/8/discount/9.html  \nhttp://postimage.co.nr/2016/8/discount/10.html\r\n\r\nFormat                                   : Matroska\r\nFormat version                           : Version 4 / Version 2\r\nFile size                                : 699 MiB\r\nDuration                                 : 1 h 32 min\r\nOverall bit rate mode                    : Constant\r\nOverall bit rate                         : 1 060 kb/s\r\nMovie name                               : Anarchy Parlor 2015 English Movies BRRip XviD AAC New Source ☻rDX☻\r\n\r\nVideo\r\nID                                       : 2\r\nFormat                                   : AVC\r\nFormat/Info                              : Advanced Video Codec\r\nFormat profile                           :   \r\nFormat settings, CABAC                   : Yes\r\nFormat settings, ReFrames                : 2 frames\r\nFormat settings, GOP                     : M=1, N=12\r\nCodec ID                                 : V_MPEG4/ISO/AVC\r\nDuration                                 : 1 h 32 min\r\nBit rate mode                            : Constant\r\nBit rate                                 : 613 kb/s\r\nWidth                                    : 720 pixels\r\nHeight                                   : 304 pixels\r\nDisplay aspect ratio                     : 2.35:1\r\nFrame rate mode                          : Constant\r\nFrame rate                               : 23.976 (24000/1001) FPS\r\nColor space                              : YUV\r\nChroma subsampling                       : 4:2:0\r\nBit depth                                : 8 bits\r\nScan type                                : Progressive\r\nBits/(Pixel*Frame)                       : 0.117\r\nStream size                              : 390 MiB (56%)\r\nTitle                                    : ☻rDX☻\r\nDefault                                  : Yes\r\nForced                                   : No\r\n\r\nAudio\r\nID                                       : 1\r\nFormat                                   : AC-3\r\nFormat/Info                              : Audio Coding 3\r\nMode extension                           : CM (complete main)\r\nFormat settings, Endianness              : Big\r\nCodec ID                                 : A_AC3\r\nDuration                                 : 1 h 32 min\r\nBit rate mode                            : Constant\r\nBit rate                                 : 448 kb/s\r\nChannel(s)                               : 6 channels\r\nChannel positions                        : Front: L C R, Side: L R, LFE\r\nSampling rate                            : 48.0 kHz\r\nFrame rate                               : 31.250 FPS (1536 spf)\r\nCompression mode                         : Lossy\r\nStream size                              : 295 MiB (42%)\r\nTitle                                    : ☻rDX☻\r\nDefault                                  : Yes\r\nForced                                   : No\r\n\r\nIMDB \nhttp://www.imdb.com/title/tt2948712/","torrent":{"xt":"urn:btih:759dfc09e2fa276e8a08f4823a7a9b553e0352d7","amp;dn":"18%2B+Anarchy+Parlor+2015+UNCENSORED+Movies+BRRip+XviD+New+%7E+%E2%98%BBrDX%E2%98%BB","amp;tr":["udp%3A%2F%2Ftracker.leechers-paradise.org%3A6969","udp%3A%2F%2Fzer0day.ch%3A1337","udp%3A%2F%2Fopen.demonii.com%3A1337","udp%3A%2F%2Ftracker.coppersurfer.tk%3A6969","udp%3A%2F%2Fexodus.desync.com%3A6969"],"infoHash":"759dfc09e2fa276e8a08f4823a7a9b553e0352d7","infoHashBuffer":{"type":"Buffer","data":[117,157,252,9,226,250,39,110,138,8,244,130,58,122,155,85,62,3,82,215]},"announce":[],"urlList":[]}}